HIERARCHY
ROOT Hips
{
    OFFSET 0.000000 0.000000 0.000000
    CHANNELS 6 Xposition Yposition Zposition Zrotation Xrotation Yrotation
    JOINT Spine
    {
        OFFSET -0.000000 7.236184 0.000000
        CHANNELS 3 Zrotation Xrotation Yrotation
        JOINT Spine1
        {
            OFFSET -0.000000 20.420147 0.000000
            CHANNELS 3 Zrotation Xrotation Yrotation
            JOINT Neck
            {
                OFFSET -0.000000 20.336288 1.848754
                CHANNELS 3 Zrotation Xrotation Yrotation
                JOINT Head
                {
                    OFFSET -0.000000 12.354461 -1.764923
                    CHANNELS 3 Zrotation Xrotation Yrotation
                    End Site
                    {
                        OFFSET -0.000000 22.061537 0.000000
                    }
                }
            }
            JOINT LeftShoulder
            {
                OFFSET 3.573296 18.396038 -0.314103
                CHANNELS 3 Zrotation Xrotation Yrotation
                JOINT LeftArm
                {
                    OFFSET 10.880760 0.000000 0.000000
                    CHANNELS 3 Zrotation Xrotation Yrotation
                    JOINT LeftForeArm
                    {
                        OFFSET 27.185530 0.000000 0.000000
                        CHANNELS 3 Zrotation Xrotation Yrotation
                        JOINT LeftHand
                        {
                            OFFSET 27.825975 0.000000 0.000000
                            CHANNELS 3 Zrotation Xrotation Yrotation
                            End Site
                            {
                                OFFSET 13.236923 0.000000 0.000000
                            }
                        }
                    }
                }
            }
            JOINT RightShoulder
            {
                OFFSET -3.474926 18.396038 -0.314103
                CHANNELS 3 Zrotation Xrotation Yrotation
                JOINT RightArm
                {
                    OFFSET -10.880760 0.000000 0.000000
                    CHANNELS 3 Zrotation Xrotation Yrotation
                    JOINT RightForeArm
                    {
                        OFFSET -27.185530 0.000000 0.000000
                        CHANNELS 3 Zrotation Xrotation Yrotation
                        JOINT RightHand
                        {
                            OFFSET -27.825975 0.000000 0.000000
                            CHANNELS 3 Zrotation Xrotation Yrotation
                            End Site
                            {
                                OFFSET -13.236923 0.000000 0.000000
                            }
                        }
                    }
                }
            }
        }
    }
    JOINT LeftUpLeg
    {
        OFFSET 8.824615 0.000000 0.000000
        CHANNELS 3 Zrotation Xrotation Yrotation
        JOINT LeftLeg
        {
            OFFSET -0.000000 -35.111282 0.000000
            CHANNELS 3 Zrotation Xrotation Yrotation
            JOINT LeftFoot
            {
                OFFSET -0.000000 -42.324711 0.000000
                CHANNELS 3 Zrotation Xrotation Yrotation
                JOINT LeftToeBase
                {
                    OFFSET -0.000000 -5.735999 13.236923
                    CHANNELS 3 Zrotation Xrotation Yrotation
                    End Site
                    {
                        OFFSET -0.000000 0.000000 3.529846
                    }
                }
            }
        }
    }
    JOINT RightUpLeg
    {
        OFFSET -8.824615 0.000000 0.000000
        CHANNELS 3 Zrotation Xrotation Yrotation
        JOINT RightLeg
        {
            OFFSET -0.000000 -35.111282 0.000000
            CHANNELS 3 Zrotation Xrotation Yrotation
            JOINT RightFoot
            {
                OFFSET -0.000000 -42.324711 0.000000
                CHANNELS 3 Zrotation Xrotation Yrotation
                JOINT RightToeBase
                {
                    OFFSET -0.000000 -5.735999 13.236923
                    CHANNELS 3 Zrotation Xrotation Yrotation
                    End Site
                    {
                        OFFSET -0.000000 0.000000 3.529846
                    }
                }
            }
        }
    }
}
MOTION
Frames:    7
Frame Time:    0.008333
-10.263729    83.952301    100.463890    2.742785    -4.274778    176.638504    -3.736571    -13.722385    0.000270    2.575536    7.894799    0.272287    3.868732    6.778163    -6.784331    10.812391    -0.882990    -5.781340    -0.863112    17.770079    0.444869    -57.203304    34.970299    -28.964285    -1.169893    -5.109075    -11.205100    18.501261    -4.773847    2.770064    9.057669    18.103165    -8.281383    45.939926    39.386974    31.476267    -1.881695    -9.905879    15.064696    -16.859142    -9.047101    -4.193991    2.880499    -12.335095    -3.490241    0.142007    26.300385    10.489763    -1.979511    -14.513629    -12.220061    -0.766811    -1.186986    0.851818    -10.459182    -9.046393    -1.766164    5.010514    16.368650    -3.213942    10.907961    -0.396507    -6.676704    -0.229820    -3.936752    0.249966
-10.511389    84.017113    100.555717    2.814653    -4.393667    176.031784    -3.695740    -13.603587    -0.038436    2.702901    7.762774    0.219174    3.971993    6.710944    -6.656331    10.779620    -0.867131    -5.665656    -0.822511    17.768183    0.380917    -57.132923    35.236122    -29.001192    -1.257622    -4.988056    -11.320436    18.470797    -4.675738    2.693721    9.055945    18.064587    -8.328748    46.042538    39.020023    31.418724    -1.879097    -9.951583    14.890372    -16.915422    -9.097411    -4.171173    2.908956    -12.268474    -3.174171    0.046468    26.018795    10.762850    -1.870646    -14.438494    -12.181257    -0.767880    -1.151731    0.852950    -10.879412    -10.428570    -1.672278    5.499081    17.976423    -3.473582    11.457671    0.464730    -6.312931    -0.233612    -4.453068    0.254285
-10.749853    84.085396    100.647118    2.887770    -4.500377    175.437775    -3.653217    -13.478415    -0.086340    2.838372    7.646833    0.155970    4.061512    6.648821    -6.516834    10.734929    -0.866782    -5.537055    -0.787931    17.769863    0.313336    -57.020996    35.536213    -29.052237    -1.340583    -4.885174    -11.454154    18.419937    -4.594048    2.630368    9.043107    18.029655    -8.362234    46.140984    38.665592    31.368622    -1.892670    -10.004979    14.736228    -16.968920    -9.152426    -4.153222    2.933732    -12.181685    -2.892736    -0.044124    25.720083    11.040924    -1.741931    -14.359108    -12.121215    -0.773055    -1.117374    0.858644    -11.301194    -11.809277    -1.631776    6.003632    19.583553    -3.734932    12.015767    1.358295    -5.976295    -0.228143    -4.912930    0.248503
-10.973272    84.154007    100.734535    2.962049    -4.590115    174.874893    -3.609826    -13.350554    -0.141102    2.977679    7.550811    0.085066    4.136193    6.594609    -6.372623    10.681046    -0.879258    -5.402212    -0.759378    17.773361    0.242106    -56.866287    35.866722    -29.118595    -1.417271    -4.803046    -11.602243    18.349993    -4.530865    2.581692    9.021623    17.999607    -8.381454    46.234310    38.333744    31.321314    -1.920905    -10.064182    14.609127    -17.022171    -9.210176    -4.141033    2.955806    -12.076636    -2.657762    -0.130425    25.416243    11.320294    -1.599888    -14.277482    -12.044003    -0.781925    -1.087111    0.868449    -11.710950    -13.140939    -1.648310    6.503385    21.137901    -3.984300    12.564837    2.244095    -5.684284    -0.211514    -5.296413    0.230524
-11.225933    84.235703    100.834343    3.054259    -4.678692    174.234222    -3.558154    -13.195600    -0.213359    3.151638    7.458380    -0.007258    4.210165    6.540389    -6.197410    10.607423    -0.906020    -5.236729    -0.732037    17.776781    0.150079    -56.626438    36.302353    -29.218309    -1.503868    -4.726243    -11.797134    18.245329    -4.474291    2.541166    8.987239    17.968485    -8.389713    46.342709    37.958500    31.260054    -1.968340    -10.141150    14.490469    -17.090382    -9.281934    -4.134021    2.981166    -11.931014    -2.427374    -0.231136    25.048763    11.657633    -1.417576    -14.175984    -11.934286    -0.796000    -1.057655    0.884033    -12.185874    -14.682045    -1.736410    7.088011    22.944059    -4.263067    13.211904    3.283284    -5.394894    -0.177951    -5.663509    0.194054
-11.465426    84.316925    100.929596    3.153459    -4.748726    173.624878    -3.504389    -13.037620    -0.292201    3.333502    7.386228    -0.107076    4.270167    6.499182    -6.020812    10.523870    -0.941701    -5.068840    -0.711077    17.776993    0.048139    -56.321423    36.788864    -29.343428    -1.586062    -4.669470    -12.010060    18.116468    -4.435685    2.517105    8.945434    17.941723    -8.382833    46.453888    37.601925    31.183300    -2.027561    -10.224512    14.409173    -17.166729    -9.356818    -4.133482    3.009049    -11.764673    -2.250019    -0.332378    24.676760    12.001618    -1.223047    -14.068525    -11.806751    -0.813282    -1.036236    0.903190    -12.648293    -16.177010    -1.901019    7.658165    24.707066    -4.521017    13.851042    4.288588    -5.171590    -0.127524    -5.933005    0.139122
-11.694980    84.397720    101.021004    3.261072    -4.802960    173.041901    -3.445092    -12.878159    -0.379021    3.516274    7.333732    -0.209833    4.324958    6.468440    -5.844099    10.428624    -0.980170    -4.901576    -0.691102    17.771229    -0.062747    -55.948849    37.327923    -29.500086    -1.665215    -4.626304    -12.237838    17.964432    -4.409205    2.506657    8.903403    17.915024    -8.363331    46.569988    37.260319    31.082138    -2.094322    -10.314415    14.365595    -17.252783    -9.435561    -4.138294    3.041557    -11.579841    -2.120957    -0.437021    24.300043    12.354398    -1.019422    -13.953914    -11.664146    -0.832935    -1.021343    0.924990    -13.102266    -17.638567    -2.143102    8.211064    26.444311    -4.758948    14.480658    5.247816    -5.012095    -0.060475    -6.112566    0.065997
